<?xml version="1.0" encoding="utf-8"?>
<!-- Generator: Adobe Illustrator 25.0.1, SVG Export Plug-In . SVG Version: 6.00 Build 0)  -->
<svg version="1.1" id="Layer_1" xmlns="http://www.w3.org/2000/svg" xmlns:xlink="http://www.w3.org/1999/xlink" x="0px" y="0px"
	 width="1920px" height="1080px" viewBox="0 0 1920 1080" style="enable-background:new 0 0 1920 1080;" xml:space="preserve">
<style type="text/css">
	.st0{fill:#007DAC;}
	.st1{fill:#44C8F5;}
</style>
<path class="st0" d="M1465.1,500.9c0,0-89.7,102.7-475.5,95.4C880,643,741.8,694.3,567.8,749c0,0,171.2-67.8,362.9-154.6
	c-127.7-5.7-284.2-22.9-475.7-57.6c0,0,285.1,21.8,564.1,16.8c153.5-72.1,305.5-151.3,381.9-213.6c0,0-41.3,83.2-312.4,211.8
	C1238.6,546.6,1379.7,532.2,1465.1,500.9z"/>
<g>
	<path class="st1" d="M589.8,566.2c3.8,54.9,19.6,106.5,44.8,152.3C705.8,690,800.5,651,900.3,606.3
		C809.5,599.9,706.5,587.3,589.8,566.2z"/>
	<path class="st1" d="M1027.5,547.3c100.3-48.3,198-100.1,275-150.4c-56-133.9-188.3-228-342.5-228c-204.2,0-370,165-371.1,369
		C710.3,544.9,869.7,550.9,1027.5,547.3z"/>
	<path class="st1" d="M1133.9,543.3c68.9-3.7,135.7-9.7,196.9-18.7c-1.4-33.6-7.2-66.1-17-96.9
		C1272.8,461.4,1215.1,500.8,1133.9,543.3z"/>
	<path class="st1" d="M989.6,610.7c-93.8,39.4-208.3,80.1-347.8,120.4c64.9,107.9,183.1,180,318.2,180c191.5,0,349.1-145,369-331.2
		C1247.5,600.6,1137.2,614.6,989.6,610.7z"/>
</g>
</svg>
